<?xml version="1.0" standalone="no"?><svg xmlns="http://www.w3.org/2000/svg" viewBox="0 0 1440 320"><path fill="#B44E6C" fill-opacity="1" d="M0,64L26.7,90.7C53.3,117,107,171,160,197.3C213.3,224,267,224,320,202.7C373.3,181,427,139,480,149.3C533.3,160,587,224,640,245.3C693.3,267,747,245,800,208C853.3,171,907,117,960,101.3C1013.3,85,1067,107,1120,96C1173.3,85,1227,43,1280,48C1333.3,53,1387,107,1413,133.3L1440,160L1440,0L1413.3,0C1386.7,0,1333,0,1280,0C1226.7,0,1173,0,1120,0C1066.7,0,1013,0,960,0C906.7,0,853,0,800,0C746.7,0,693,0,640,0C586.7,0,533,0,480,0C426.7,0,373,0,320,0C266.7,0,213,0,160,0C106.7,0,53,0,27,0L0,0Z"></path></svg>