<?xml version="1.0" standalone="no"?><svg xmlns="http://www.w3.org/2000/svg" viewBox="0 0 1440 320"><path fill="#E03F8C" fill-opacity="1" d="M0,128L26.7,149.3C53.3,171,107,213,160,218.7C213.3,224,267,192,320,202.7C373.3,213,427,267,480,266.7C533.3,267,587,213,640,181.3C693.3,149,747,139,800,154.7C853.3,171,907,213,960,197.3C1013.3,181,1067,107,1120,106.7C1173.3,107,1227,181,1280,186.7C1333.3,192,1387,128,1413,96L1440,64L1440,0L1413.3,0C1386.7,0,1333,0,1280,0C1226.7,0,1173,0,1120,0C1066.7,0,1013,0,960,0C906.7,0,853,0,800,0C746.7,0,693,0,640,0C586.7,0,533,0,480,0C426.7,0,373,0,320,0C266.7,0,213,0,160,0C106.7,0,53,0,27,0L0,0Z"></path></svg>